<svg id="visual" viewBox="0 0 900 600" width="900" height="600" xmlns="http://www.w3.org/2000/svg" xmlns:xlink="http://www.w3.org/1999/xlink" version="1.1"><rect width="900" height="600" fill="#ffffff"></rect><g><g transform="translate(873 551)"><path d="M75.6 -23.4C86.5 9.2 76.1 49.8 50.1 68.7C24 87.5 -17.6 84.6 -47.4 63.4C-77.1 42.2 -94.9 2.8 -85 -28.3C-75.1 -59.4 -37.6 -82.1 -2.6 -81.3C32.3 -80.4 64.6 -55.9 75.6 -23.4Z" stroke="#F7760E" fill="none" stroke-width="20"></path></g><g transform="translate(84 483)"><path d="M53.9 -21C60.7 3.5 50.9 30 31 44.9C11.2 59.9 -18.6 63.3 -37.2 50C-55.8 36.8 -63.2 6.9 -55.1 -19.3C-47.1 -45.6 -23.5 -68.3 0 -68.3C23.5 -68.3 47 -45.6 53.9 -21Z" stroke="#F7760E" fill="none" stroke-width="20"></path></g><g transform="translate(797 78)"><path d="M22.4 -8C25.1 1 20.6 11.6 12.8 17.1C5 22.6 -6.1 23.1 -13.8 17.8C-21.5 12.5 -25.9 1.3 -23.1 -7.9C-20.2 -17 -10.1 -24.3 -0.1 -24.2C9.9 -24.2 19.7 -16.9 22.4 -8Z" stroke="#F7760E" fill="none" stroke-width="20"></path></g><g transform="translate(577 329)"><path d="M21.4 -6.4C24.1 1.3 20.1 11.7 12.8 16.8C5.6 21.8 -4.9 21.5 -12.2 16.4C-19.4 11.2 -23.4 1.1 -20.9 -6.4C-18.3 -14 -9.1 -19 0.1 -19C9.4 -19.1 18.7 -14.1 21.4 -6.4Z" stroke="#F7760E" fill="none" stroke-width="20"></path></g><g transform="translate(415 529)"><path d="M50.1 -15.6C57.2 5.5 49.8 32 31.7 45.6C13.6 59.2 -15.2 60 -35.3 46C-55.4 32 -66.6 3.4 -59.3 -18.2C-51.9 -39.7 -26 -54.1 -2.2 -53.3C21.5 -52.6 43 -36.8 50.1 -15.6Z" stroke="#F7760E" fill="none" stroke-width="20"></path></g><g transform="translate(392 2)"><path d="M19.3 -6.4C22 2.1 19.1 12.2 12.7 16.7C6.2 21.2 -3.8 20.1 -10.3 15.1C-16.8 10.2 -19.9 1.4 -17.6 -6.5C-15.3 -14.4 -7.6 -21.3 0.3 -21.4C8.3 -21.5 16.6 -14.8 19.3 -6.4Z" stroke="#F7760E" fill="none" stroke-width="20"></path></g><g transform="translate(118 209)"><path d="M30.8 -10.9C34.5 1.4 28.4 16 17.5 23.8C6.6 31.7 -9 32.8 -19.1 25.6C-29.2 18.4 -33.8 3 -29.7 -9.9C-25.6 -22.8 -12.8 -33.1 0.4 -33.2C13.6 -33.3 27.1 -23.3 30.8 -10.9Z" stroke="#F7760E" fill="none" stroke-width="20"></path></g></g></svg>