<svg id="visual" viewBox="0 0 960 340" width="960" height="340" xmlns="http://www.w3.org/2000/svg" xmlns:xlink="http://www.w3.org/1999/xlink" version="1.1"><rect x="0" y="0" width="960" height="340" fill="#FFF6FF"></rect><path d="M0 311L137 311L137 323L274 323L274 304L411 304L411 325L549 325L549 319L686 319L686 307L823 307L823 305L960 305L960 325L960 0L960 0L823 0L823 0L686 0L686 0L549 0L549 0L411 0L411 0L274 0L274 0L137 0L137 0L0 0Z" fill="#fff6ff"></path><path d="M0 278L137 278L137 294L274 294L274 279L411 279L411 293L549 293L549 296L686 296L686 290L823 290L823 293L960 293L960 300L960 0L960 0L823 0L823 0L686 0L686 0L549 0L549 0L411 0L411 0L274 0L274 0L137 0L137 0L0 0Z" fill="#fde9f8"></path><path d="M0 269L137 269L137 249L274 249L274 268L411 268L411 265L549 265L549 267L686 267L686 256L823 256L823 260L960 260L960 266L960 0L960 0L823 0L823 0L686 0L686 0L549 0L549 0L411 0L411 0L274 0L274 0L137 0L137 0L0 0Z" fill="#fddbef"></path><path d="M0 246L137 246L137 222L274 222L274 241L411 241L411 222L549 222L549 226L686 226L686 232L823 232L823 238L960 238L960 247L960 0L960 0L823 0L823 0L686 0L686 0L549 0L549 0L411 0L411 0L274 0L274 0L137 0L137 0L0 0Z" fill="#fdcde3"></path><path d="M0 210L137 210L137 201L274 201L274 217L411 217L411 203L549 203L549 199L686 199L686 197L823 197L823 219L960 219L960 201L960 0L960 0L823 0L823 0L686 0L686 0L549 0L549 0L411 0L411 0L274 0L274 0L137 0L137 0L0 0Z" fill="#febed5"></path><path d="M0 188L137 188L137 185L274 185L274 175L411 175L411 194L549 194L549 174L686 174L686 174L823 174L823 169L960 169L960 189L960 0L960 0L823 0L823 0L686 0L686 0L549 0L549 0L411 0L411 0L274 0L274 0L137 0L137 0L0 0Z" fill="#ffb0c4"></path><path d="M0 147L137 147L137 150L274 150L274 167L411 167L411 148L549 148L549 168L686 168L686 156L823 156L823 160L960 160L960 165L960 0L960 0L823 0L823 0L686 0L686 0L549 0L549 0L411 0L411 0L274 0L274 0L137 0L137 0L0 0Z" fill="#ffa2b1"></path><path d="M0 138L137 138L137 141L274 141L274 118L411 118L411 130L549 130L549 130L686 130L686 120L823 120L823 122L960 122L960 134L960 0L960 0L823 0L823 0L686 0L686 0L549 0L549 0L411 0L411 0L274 0L274 0L137 0L137 0L0 0Z" fill="#ff959b"></path><path d="M0 92L137 92L137 92L274 92L274 109L411 109L411 107L549 107L549 94L686 94L686 103L823 103L823 106L960 106L960 116L960 0L960 0L823 0L823 0L686 0L686 0L549 0L549 0L411 0L411 0L274 0L274 0L137 0L137 0L0 0Z" fill="#ff8980"></path><path d="M0 88L137 88L137 89L274 89L274 71L411 71L411 85L549 85L549 81L686 81L686 83L823 83L823 75L960 75L960 87L960 0L960 0L823 0L823 0L686 0L686 0L549 0L549 0L411 0L411 0L274 0L274 0L137 0L137 0L0 0Z" fill="#ff7f62"></path><path d="M0 55L137 55L137 58L274 58L274 49L411 49L411 56L549 56L549 57L686 57L686 56L823 56L823 63L960 63L960 52L960 0L960 0L823 0L823 0L686 0L686 0L549 0L549 0L411 0L411 0L274 0L274 0L137 0L137 0L0 0Z" fill="#ff7940"></path><path d="M0 15L137 15L137 31L274 31L274 22L411 22L411 16L549 16L549 36L686 36L686 30L823 30L823 14L960 14L960 24L960 0L960 0L823 0L823 0L686 0L686 0L549 0L549 0L411 0L411 0L274 0L274 0L137 0L137 0L0 0Z" fill="#f7770f"></path></svg>