<svg id="visual" viewBox="0 0 900 600" width="900" height="600" xmlns="http://www.w3.org/2000/svg" xmlns:xlink="http://www.w3.org/1999/xlink" version="1.1"><g stroke-width="1" stroke-linejoin="bevel"><path d="M419 330L290 407L412 407Z" fill="#ffbb8c" stroke="#ffbb8c"></path><path d="M419 330L273 312L290 407Z" fill="#ffffff" stroke="#ffffff"></path><path d="M298 475L405 474L412 407Z" fill="#ffae75" stroke="#ffae75"></path><path d="M210 433L298 475L290 407Z" fill="#ffbb8c" stroke="#ffbb8c"></path><path d="M290 407L298 475L412 407Z" fill="#ffd6b9" stroke="#ffd6b9"></path><path d="M273 312L227 333L290 407Z" fill="#ffd6b9" stroke="#ffd6b9"></path><path d="M419 330L395 223L273 312Z" fill="#ffc8a2" stroke="#ffc8a2"></path><path d="M273 312L191 169L227 333Z" fill="#fff1e7" stroke="#fff1e7"></path><path d="M227 333L210 433L290 407Z" fill="#ffbb8c" stroke="#ffbb8c"></path><path d="M395 223L315 196L273 312Z" fill="#ffae75" stroke="#ffae75"></path><path d="M536 432L505 269L419 330Z" fill="#ffe4d0" stroke="#ffe4d0"></path><path d="M419 330L505 269L395 223Z" fill="#ffe4d0" stroke="#ffe4d0"></path><path d="M536 432L419 330L412 407Z" fill="#fea15f" stroke="#fea15f"></path><path d="M479 514L536 432L412 407Z" fill="#ffc8a2" stroke="#ffc8a2"></path><path d="M405 474L479 514L412 407Z" fill="#fea15f" stroke="#fea15f"></path><path d="M426 600L479 514L405 474Z" fill="#fea15f" stroke="#fea15f"></path><path d="M132 488L189 486L210 433Z" fill="#ffc8a2" stroke="#ffc8a2"></path><path d="M210 433L189 486L298 475Z" fill="#ffe4d0" stroke="#ffe4d0"></path><path d="M298 475L312 600L405 474Z" fill="#fc9348" stroke="#fc9348"></path><path d="M505 269L462 188L395 223Z" fill="#fea15f" stroke="#fea15f"></path><path d="M395 223L368 131L315 196Z" fill="#ffae75" stroke="#ffae75"></path><path d="M536 432L573 298L505 269Z" fill="#fa8530" stroke="#fa8530"></path><path d="M564 166L480 120L462 188Z" fill="#fea15f" stroke="#fea15f"></path><path d="M462 188L368 131L395 223Z" fill="#ffbb8c" stroke="#ffbb8c"></path><path d="M234 600L312 600L298 475Z" fill="#ffbb8c" stroke="#ffbb8c"></path><path d="M312 600L426 600L405 474Z" fill="#ffe4d0" stroke="#ffe4d0"></path><path d="M599 524L617 430L536 432Z" fill="#fc9348" stroke="#fc9348"></path><path d="M263 86L191 169L315 196Z" fill="#ffc8a2" stroke="#ffc8a2"></path><path d="M315 196L191 169L273 312Z" fill="#fff1e7" stroke="#fff1e7"></path><path d="M227 333L102 396L210 433Z" fill="#fff1e7" stroke="#fff1e7"></path><path d="M87 297L102 396L227 333Z" fill="#ffbb8c" stroke="#ffbb8c"></path><path d="M102 396L132 488L210 433Z" fill="#fc9348" stroke="#fc9348"></path><path d="M189 486L234 600L298 475Z" fill="#fc9348" stroke="#fc9348"></path><path d="M426 600L464 600L479 514Z" fill="#ffd6b9" stroke="#ffd6b9"></path><path d="M132 488L234 600L189 486Z" fill="#fa8530" stroke="#fa8530"></path><path d="M191 169L87 297L227 333Z" fill="#ffae75" stroke="#ffae75"></path><path d="M599 524L536 432L479 514Z" fill="#fa8530" stroke="#fa8530"></path><path d="M536 432L617 430L573 298Z" fill="#f7770f" stroke="#f7770f"></path><path d="M564 166L462 188L505 269Z" fill="#fc9348" stroke="#fc9348"></path><path d="M462 188L480 120L368 131Z" fill="#ffae75" stroke="#ffae75"></path><path d="M663 210L564 166L573 298Z" fill="#ffc8a2" stroke="#ffc8a2"></path><path d="M573 298L564 166L505 269Z" fill="#ffc8a2" stroke="#ffc8a2"></path><path d="M368 131L263 86L315 196Z" fill="#f7770f" stroke="#f7770f"></path><path d="M297 0L263 86L368 131Z" fill="#ffd6b9" stroke="#ffd6b9"></path><path d="M464 600L599 524L479 514Z" fill="#fa8530" stroke="#fa8530"></path><path d="M191 169L113 177L87 297Z" fill="#fff1e7" stroke="#fff1e7"></path><path d="M118 102L113 177L191 169Z" fill="#ffe4d0" stroke="#ffe4d0"></path><path d="M263 86L169 75L191 169Z" fill="#ffe4d0" stroke="#ffe4d0"></path><path d="M705 418L696 324L617 430Z" fill="#fa8530" stroke="#fa8530"></path><path d="M617 430L696 324L573 298Z" fill="#ffffff" stroke="#ffffff"></path><path d="M564 166L602 120L480 120Z" fill="#ffc8a2" stroke="#ffc8a2"></path><path d="M696 324L663 210L573 298Z" fill="#f7770f" stroke="#f7770f"></path><path d="M663 210L602 120L564 166Z" fill="#ffbb8c" stroke="#ffbb8c"></path><path d="M480 120L382 0L368 131Z" fill="#fa8530" stroke="#fa8530"></path><path d="M263 86L221 0L169 75Z" fill="#ffffff" stroke="#ffffff"></path><path d="M169 75L118 102L191 169Z" fill="#f7770f" stroke="#f7770f"></path><path d="M0 306L0 379L87 297Z" fill="#ffffff" stroke="#ffffff"></path><path d="M102 396L0 472L132 488Z" fill="#ffffff" stroke="#ffffff"></path><path d="M132 488L74 600L234 600Z" fill="#ffffff" stroke="#ffffff"></path><path d="M87 297L0 379L102 396Z" fill="#f7770f" stroke="#f7770f"></path><path d="M0 306L87 297L0 224Z" fill="#fc9348" stroke="#fc9348"></path><path d="M0 224L87 297L113 177Z" fill="#ffbb8c" stroke="#ffbb8c"></path><path d="M464 600L617 600L599 524Z" fill="#ffd6b9" stroke="#ffd6b9"></path><path d="M734 468L705 418L617 430Z" fill="#f7770f" stroke="#f7770f"></path><path d="M734 468L617 430L599 524Z" fill="#ffbb8c" stroke="#ffbb8c"></path><path d="M474 0L382 0L480 120Z" fill="#ffe4d0" stroke="#ffe4d0"></path><path d="M0 472L74 600L132 488Z" fill="#ffae75" stroke="#ffae75"></path><path d="M169 75L124 0L118 102Z" fill="#ffae75" stroke="#ffae75"></path><path d="M382 0L297 0L368 131Z" fill="#ffd6b9" stroke="#ffd6b9"></path><path d="M0 379L0 472L102 396Z" fill="#ffd6b9" stroke="#ffd6b9"></path><path d="M0 83L0 224L113 177Z" fill="#fff1e7" stroke="#fff1e7"></path><path d="M588 0L474 0L480 120Z" fill="#ffbb8c" stroke="#ffbb8c"></path><path d="M297 0L221 0L263 86Z" fill="#ffbb8c" stroke="#ffbb8c"></path><path d="M689 600L734 468L599 524Z" fill="#f7770f" stroke="#f7770f"></path><path d="M828 392L772 263L696 324Z" fill="#ffd6b9" stroke="#ffd6b9"></path><path d="M617 600L689 600L599 524Z" fill="#f7770f" stroke="#f7770f"></path><path d="M0 472L0 600L74 600Z" fill="#fea15f" stroke="#fea15f"></path><path d="M663 210L689 103L602 120Z" fill="#fff1e7" stroke="#fff1e7"></path><path d="M602 120L588 0L480 120Z" fill="#ffd6b9" stroke="#ffd6b9"></path><path d="M761 160L689 103L663 210Z" fill="#ffe4d0" stroke="#ffe4d0"></path><path d="M772 263L663 210L696 324Z" fill="#f7770f" stroke="#f7770f"></path><path d="M221 0L124 0L169 75Z" fill="#fea15f" stroke="#fea15f"></path><path d="M118 102L0 83L113 177Z" fill="#fff1e7" stroke="#fff1e7"></path><path d="M828 392L696 324L705 418Z" fill="#f7770f" stroke="#f7770f"></path><path d="M689 103L588 0L602 120Z" fill="#fff1e7" stroke="#fff1e7"></path><path d="M124 0L0 83L118 102Z" fill="#ffffff" stroke="#ffffff"></path><path d="M772 263L761 160L663 210Z" fill="#f7770f" stroke="#f7770f"></path><path d="M689 103L704 0L588 0Z" fill="#ffc8a2" stroke="#ffc8a2"></path><path d="M734 468L828 392L705 418Z" fill="#ffd6b9" stroke="#ffd6b9"></path><path d="M772 263L900 176L761 160Z" fill="#fff1e7" stroke="#fff1e7"></path><path d="M824 480L828 392L734 468Z" fill="#ffae75" stroke="#ffae75"></path><path d="M778 600L824 480L734 468Z" fill="#ffd6b9" stroke="#ffd6b9"></path><path d="M689 600L778 600L734 468Z" fill="#ffe4d0" stroke="#ffe4d0"></path><path d="M124 0L0 0L0 83Z" fill="#fea15f" stroke="#fea15f"></path><path d="M794 0L704 0L689 103Z" fill="#fea15f" stroke="#fea15f"></path><path d="M900 489L900 408L824 480Z" fill="#ffe4d0" stroke="#ffe4d0"></path><path d="M824 480L900 408L828 392Z" fill="#fa8530" stroke="#fa8530"></path><path d="M828 392L900 303L772 263Z" fill="#ffe4d0" stroke="#ffe4d0"></path><path d="M761 160L828 73L689 103Z" fill="#ffae75" stroke="#ffae75"></path><path d="M900 408L900 303L828 392Z" fill="#ffe4d0" stroke="#ffe4d0"></path><path d="M900 176L828 73L761 160Z" fill="#ffc8a2" stroke="#ffc8a2"></path><path d="M900 600L900 489L824 480Z" fill="#ffe4d0" stroke="#ffe4d0"></path><path d="M828 73L794 0L689 103Z" fill="#ffae75" stroke="#ffae75"></path><path d="M900 303L900 176L772 263Z" fill="#ffc8a2" stroke="#ffc8a2"></path><path d="M828 73L900 0L794 0Z" fill="#ffc8a2" stroke="#ffc8a2"></path><path d="M778 600L900 600L824 480Z" fill="#ffd6b9" stroke="#ffd6b9"></path><path d="M900 176L900 96L828 73Z" fill="#ffc8a2" stroke="#ffc8a2"></path><path d="M900 96L900 0L828 73Z" fill="#ffbb8c" stroke="#ffbb8c"></path></g></svg>