<svg id="visual" viewBox="0 0 1800 1200" width="1800" height="1200" xmlns="http://www.w3.org/2000/svg" xmlns:xlink="http://www.w3.org/1999/xlink" version="1.1"><g stroke-width="1" stroke-linejoin="bevel"><path d="M985 572L1174 591L1003 380Z" fill="#e181ad" stroke="#e181ad"></path><path d="M1174 591L1215 418L1003 380Z" fill="#c980b9" stroke="#c980b9"></path><path d="M1218 176L1015 175L1003 380Z" fill="#6b82be" stroke="#6b82be"></path><path d="M778 368L787 619L985 572Z" fill="#ff997a" stroke="#ff997a"></path><path d="M985 572L979 790L1174 591Z" fill="#fe8d8b" stroke="#fe8d8b"></path><path d="M778 368L985 572L1003 380Z" fill="#297ea6" stroke="#297ea6"></path><path d="M985 572L787 619L979 790Z" fill="#c980b9" stroke="#c980b9"></path><path d="M1376 798L1399 605L1174 591Z" fill="#e181ad" stroke="#e181ad"></path><path d="M1174 591L1399 605L1215 418Z" fill="#ff997a" stroke="#ff997a"></path><path d="M1215 418L1218 176L1003 380Z" fill="#ff997a" stroke="#ff997a"></path><path d="M799 179L778 368L1003 380Z" fill="#ac81c1" stroke="#ac81c1"></path><path d="M1425 382L1218 176L1215 418Z" fill="#297ea6" stroke="#297ea6"></path><path d="M1399 605L1425 382L1215 418Z" fill="#ff997a" stroke="#ff997a"></path><path d="M979 790L1216 830L1174 591Z" fill="#297ea6" stroke="#297ea6"></path><path d="M1015 175L799 179L1003 380Z" fill="#fea86c" stroke="#fea86c"></path><path d="M1216 830L1376 798L1174 591Z" fill="#4981b4" stroke="#4981b4"></path><path d="M787 619L816 812L979 790Z" fill="#297ea6" stroke="#297ea6"></path><path d="M979 790L1164 996L1216 830Z" fill="#c980b9" stroke="#c980b9"></path><path d="M1425 382L1437 164L1218 176Z" fill="#fe8d8b" stroke="#fe8d8b"></path><path d="M1235 0L962 0L1015 175Z" fill="#fe8d8b" stroke="#fe8d8b"></path><path d="M1015 175L962 0L799 179Z" fill="#e181ad" stroke="#e181ad"></path><path d="M1235 0L1015 175L1218 176Z" fill="#6b82be" stroke="#6b82be"></path><path d="M778 368L589 560L787 619Z" fill="#e181ad" stroke="#e181ad"></path><path d="M787 619L607 813L816 812Z" fill="#297ea6" stroke="#297ea6"></path><path d="M579 433L589 560L778 368Z" fill="#fe8d8b" stroke="#fe8d8b"></path><path d="M1597 562L1425 382L1399 605Z" fill="#fea86c" stroke="#fea86c"></path><path d="M1597 562L1592 427L1425 382Z" fill="#fea86c" stroke="#fea86c"></path><path d="M1425 382L1603 167L1437 164Z" fill="#ff997a" stroke="#ff997a"></path><path d="M1363 0L1235 0L1218 176Z" fill="#4981b4" stroke="#4981b4"></path><path d="M623 160L579 433L778 368Z" fill="#ff997a" stroke="#ff997a"></path><path d="M1604 805L1597 562L1399 605Z" fill="#8c82c2" stroke="#8c82c2"></path><path d="M1020 1004L1164 996L979 790Z" fill="#f3859d" stroke="#f3859d"></path><path d="M1216 830L1368 979L1376 798Z" fill="#e181ad" stroke="#e181ad"></path><path d="M814 1000L1020 1004L979 790Z" fill="#fe8d8b" stroke="#fe8d8b"></path><path d="M962 0L830 0L799 179Z" fill="#ac81c1" stroke="#ac81c1"></path><path d="M799 179L623 160L778 368Z" fill="#e181ad" stroke="#e181ad"></path><path d="M1631 0L1363 0L1437 164Z" fill="#fea86c" stroke="#fea86c"></path><path d="M1437 164L1363 0L1218 176Z" fill="#8c82c2" stroke="#8c82c2"></path><path d="M1164 996L1368 979L1216 830Z" fill="#c980b9" stroke="#c980b9"></path><path d="M1376 798L1604 805L1399 605Z" fill="#ff997a" stroke="#ff997a"></path><path d="M632 0L623 160L799 179Z" fill="#ac81c1" stroke="#ac81c1"></path><path d="M412 615L607 813L589 560Z" fill="#ff997a" stroke="#ff997a"></path><path d="M589 560L607 813L787 619Z" fill="#c980b9" stroke="#c980b9"></path><path d="M816 812L814 1000L979 790Z" fill="#e181ad" stroke="#e181ad"></path><path d="M639 985L814 1000L816 812Z" fill="#ac81c1" stroke="#ac81c1"></path><path d="M1592 427L1603 167L1425 382Z" fill="#6b82be" stroke="#6b82be"></path><path d="M1800 377L1603 167L1592 427Z" fill="#ac81c1" stroke="#ac81c1"></path><path d="M1368 979L1604 805L1376 798Z" fill="#ac81c1" stroke="#ac81c1"></path><path d="M1597 562L1800 377L1592 427Z" fill="#c980b9" stroke="#c980b9"></path><path d="M830 0L632 0L799 179Z" fill="#e181ad" stroke="#e181ad"></path><path d="M374 368L412 615L579 433Z" fill="#fea86c" stroke="#fea86c"></path><path d="M607 813L639 985L816 812Z" fill="#fe8d8b" stroke="#fe8d8b"></path><path d="M579 433L412 615L589 560Z" fill="#4981b4" stroke="#4981b4"></path><path d="M607 813L438 1013L639 985Z" fill="#4981b4" stroke="#4981b4"></path><path d="M421 230L579 433L623 160Z" fill="#fe8d8b" stroke="#fe8d8b"></path><path d="M402 0L421 230L623 160Z" fill="#e181ad" stroke="#e181ad"></path><path d="M1800 630L1800 377L1597 562Z" fill="#e181ad" stroke="#e181ad"></path><path d="M802 1200L974 1200L814 1000Z" fill="#fea86c" stroke="#fea86c"></path><path d="M814 1000L974 1200L1020 1004Z" fill="#6b82be" stroke="#6b82be"></path><path d="M1020 1004L1205 1200L1164 996Z" fill="#4981b4" stroke="#4981b4"></path><path d="M1164 996L1205 1200L1368 979Z" fill="#ac81c1" stroke="#ac81c1"></path><path d="M974 1200L1205 1200L1020 1004Z" fill="#fe8d8b" stroke="#fe8d8b"></path><path d="M1368 979L1610 1033L1604 805Z" fill="#f3859d" stroke="#f3859d"></path><path d="M421 230L374 368L579 433Z" fill="#f3859d" stroke="#f3859d"></path><path d="M1604 805L1800 630L1597 562Z" fill="#4981b4" stroke="#4981b4"></path><path d="M1800 790L1800 630L1604 805Z" fill="#ff997a" stroke="#ff997a"></path><path d="M1800 0L1631 0L1603 167Z" fill="#ac81c1" stroke="#ac81c1"></path><path d="M1603 167L1631 0L1437 164Z" fill="#ff997a" stroke="#ff997a"></path><path d="M1361 1200L1610 1033L1368 979Z" fill="#ac81c1" stroke="#ac81c1"></path><path d="M1800 377L1800 221L1603 167Z" fill="#fea86c" stroke="#fea86c"></path><path d="M1205 1200L1361 1200L1368 979Z" fill="#6b82be" stroke="#6b82be"></path><path d="M639 985L802 1200L814 1000Z" fill="#f3859d" stroke="#f3859d"></path><path d="M1800 999L1800 790L1604 805Z" fill="#ac81c1" stroke="#ac81c1"></path><path d="M200 591L367 770L412 615Z" fill="#4981b4" stroke="#4981b4"></path><path d="M412 615L367 770L607 813Z" fill="#e181ad" stroke="#e181ad"></path><path d="M639 985L619 1200L802 1200Z" fill="#ac81c1" stroke="#ac81c1"></path><path d="M367 770L438 1013L607 813Z" fill="#297ea6" stroke="#297ea6"></path><path d="M229 236L238 404L374 368Z" fill="#ff997a" stroke="#ff997a"></path><path d="M632 0L402 0L623 160Z" fill="#c980b9" stroke="#c980b9"></path><path d="M229 236L374 368L421 230Z" fill="#297ea6" stroke="#297ea6"></path><path d="M374 368L238 404L412 615Z" fill="#c980b9" stroke="#c980b9"></path><path d="M367 770L218 977L438 1013Z" fill="#6b82be" stroke="#6b82be"></path><path d="M438 1013L619 1200L639 985Z" fill="#fea86c" stroke="#fea86c"></path><path d="M1800 221L1800 0L1603 167Z" fill="#6b82be" stroke="#6b82be"></path><path d="M1800 1200L1800 999L1610 1033Z" fill="#6b82be" stroke="#6b82be"></path><path d="M1610 1033L1800 999L1604 805Z" fill="#6b82be" stroke="#6b82be"></path><path d="M1361 1200L1598 1200L1610 1033Z" fill="#8c82c2" stroke="#8c82c2"></path><path d="M402 0L229 236L421 230Z" fill="#c980b9" stroke="#c980b9"></path><path d="M0 411L200 591L238 404Z" fill="#297ea6" stroke="#297ea6"></path><path d="M238 404L200 591L412 615Z" fill="#4981b4" stroke="#4981b4"></path><path d="M200 591L208 805L367 770Z" fill="#f3859d" stroke="#f3859d"></path><path d="M438 1013L386 1200L619 1200Z" fill="#8c82c2" stroke="#8c82c2"></path><path d="M208 805L218 977L367 770Z" fill="#c980b9" stroke="#c980b9"></path><path d="M218 977L386 1200L438 1013Z" fill="#6b82be" stroke="#6b82be"></path><path d="M1598 1200L1800 1200L1610 1033Z" fill="#4981b4" stroke="#4981b4"></path><path d="M402 0L181 0L229 236Z" fill="#f3859d" stroke="#f3859d"></path><path d="M229 236L0 411L238 404Z" fill="#e181ad" stroke="#e181ad"></path><path d="M0 206L0 411L229 236Z" fill="#8c82c2" stroke="#8c82c2"></path><path d="M200 591L0 607L208 805Z" fill="#fe8d8b" stroke="#fe8d8b"></path><path d="M208 805L0 800L218 977Z" fill="#4981b4" stroke="#4981b4"></path><path d="M0 411L0 607L200 591Z" fill="#ac81c1" stroke="#ac81c1"></path><path d="M181 0L0 206L229 236Z" fill="#4981b4" stroke="#4981b4"></path><path d="M0 607L0 800L208 805Z" fill="#ff997a" stroke="#ff997a"></path><path d="M218 977L171 1200L386 1200Z" fill="#ac81c1" stroke="#ac81c1"></path><path d="M0 1018L171 1200L218 977Z" fill="#fe8d8b" stroke="#fe8d8b"></path><path d="M181 0L0 0L0 206Z" fill="#6b82be" stroke="#6b82be"></path><path d="M0 800L0 1018L218 977Z" fill="#ac81c1" stroke="#ac81c1"></path><path d="M0 1018L0 1200L171 1200Z" fill="#ac81c1" stroke="#ac81c1"></path></g></svg>