<svg id="visual" viewBox="0 0 900 600" width="900" height="600" xmlns="http://www.w3.org/2000/svg" xmlns:xlink="http://www.w3.org/1999/xlink" version="1.1"><rect x="0" y="0" width="900" height="600" fill="#2b2727"></rect><path d="M0 216L21.5 211C43 206 86 196 128.8 188.8C171.7 181.7 214.3 177.3 257.2 175.8C300 174.3 343 175.7 385.8 173.3C428.7 171 471.3 165 514.2 160.7C557 156.3 600 153.7 642.8 159.8C685.7 166 728.3 181 771.2 196C814 211 857 226 878.5 233.5L900 241L900 0L878.5 0C857 0 814 0 771.2 0C728.3 0 685.7 0 642.8 0C600 0 557 0 514.2 0C471.3 0 428.7 0 385.8 0C343 0 300 0 257.2 0C214.3 0 171.7 0 128.8 0C86 0 43 0 21.5 0L0 0Z" fill="#f4a74a"></path><path d="M0 158L21.5 158C43 158 86 158 128.8 162.7C171.7 167.3 214.3 176.7 257.2 175C300 173.3 343 160.7 385.8 160.8C428.7 161 471.3 174 514.2 170.3C557 166.7 600 146.3 642.8 145.7C685.7 145 728.3 164 771.2 175.8C814 187.7 857 192.3 878.5 194.7L900 197L900 0L878.5 0C857 0 814 0 771.2 0C728.3 0 685.7 0 642.8 0C600 0 557 0 514.2 0C471.3 0 428.7 0 385.8 0C343 0 300 0 257.2 0C214.3 0 171.7 0 128.8 0C86 0 43 0 21.5 0L0 0Z" fill="#f49c3b"></path><path d="M0 152L21.5 146.7C43 141.3 86 130.7 128.8 131.7C171.7 132.7 214.3 145.3 257.2 147.2C300 149 343 140 385.8 138.3C428.7 136.7 471.3 142.3 514.2 141C557 139.7 600 131.3 642.8 129C685.7 126.7 728.3 130.3 771.2 129C814 127.7 857 121.3 878.5 118.2L900 115L900 0L878.5 0C857 0 814 0 771.2 0C728.3 0 685.7 0 642.8 0C600 0 557 0 514.2 0C471.3 0 428.7 0 385.8 0C343 0 300 0 257.2 0C214.3 0 171.7 0 128.8 0C86 0 43 0 21.5 0L0 0Z" fill="#f5902d"></path><path d="M0 72L21.5 73C43 74 86 76 128.8 82C171.7 88 214.3 98 257.2 96.7C300 95.3 343 82.7 385.8 79.5C428.7 76.3 471.3 82.7 514.2 82.2C557 81.7 600 74.3 642.8 77.5C685.7 80.7 728.3 94.3 771.2 100C814 105.7 857 103.3 878.5 102.2L900 101L900 0L878.5 0C857 0 814 0 771.2 0C728.3 0 685.7 0 642.8 0C600 0 557 0 514.2 0C471.3 0 428.7 0 385.8 0C343 0 300 0 257.2 0C214.3 0 171.7 0 128.8 0C86 0 43 0 21.5 0L0 0Z" fill="#f6841f"></path><path d="M0 40L21.5 43.2C43 46.3 86 52.7 128.8 54.8C171.7 57 214.3 55 257.2 54.2C300 53.3 343 53.7 385.8 51.7C428.7 49.7 471.3 45.3 514.2 42.8C557 40.3 600 39.7 642.8 43.8C685.7 48 728.3 57 771.2 59.2C814 61.3 857 56.7 878.5 54.3L900 52L900 0L878.5 0C857 0 814 0 771.2 0C728.3 0 685.7 0 642.8 0C600 0 557 0 514.2 0C471.3 0 428.7 0 385.8 0C343 0 300 0 257.2 0C214.3 0 171.7 0 128.8 0C86 0 43 0 21.5 0L0 0Z" fill="#f7770f"></path></svg>