<svg id="visual" viewBox="0 0 1200 1600" width="1200" height="1600" xmlns="http://www.w3.org/2000/svg" xmlns:xlink="http://www.w3.org/1999/xlink" version="1.1"><rect x="0" y="0" width="1200" height="1600" fill="#2B2727"></rect><path d="M458 1600L474.2 1561.8C490.3 1523.7 522.7 1447.3 540.7 1371.2C558.7 1295 562.3 1219 536.3 1142.8C510.3 1066.7 454.7 990.3 428.2 914.2C401.7 838 404.3 762 409.8 685.8C415.3 609.7 423.7 533.3 449.5 457.2C475.3 381 518.7 305 540.8 228.8C563 152.7 564 76.3 564.5 38.2L565 0L1200 0L1200 38.2C1200 76.3 1200 152.7 1200 228.8C1200 305 1200 381 1200 457.2C1200 533.3 1200 609.7 1200 685.8C1200 762 1200 838 1200 914.2C1200 990.3 1200 1066.7 1200 1142.8C1200 1219 1200 1295 1200 1371.2C1200 1447.3 1200 1523.7 1200 1561.8L1200 1600Z" fill="#2b2727"></path><path d="M565 1600L556.7 1561.8C548.3 1523.7 531.7 1447.3 528.8 1371.2C526 1295 537 1219 549.2 1142.8C561.3 1066.7 574.7 990.3 592.2 914.2C609.7 838 631.3 762 625 685.8C618.7 609.7 584.3 533.3 602 457.2C619.7 381 689.3 305 696 228.8C702.7 152.7 646.3 76.3 618.2 38.2L590 0L1200 0L1200 38.2C1200 76.3 1200 152.7 1200 228.8C1200 305 1200 381 1200 457.2C1200 533.3 1200 609.7 1200 685.8C1200 762 1200 838 1200 914.2C1200 990.3 1200 1066.7 1200 1142.8C1200 1219 1200 1295 1200 1371.2C1200 1447.3 1200 1523.7 1200 1561.8L1200 1600Z" fill="#4a3130"></path><path d="M743 1600L754 1561.8C765 1523.7 787 1447.3 784 1371.2C781 1295 753 1219 742.5 1142.8C732 1066.7 739 990.3 748.3 914.2C757.7 838 769.3 762 756.8 685.8C744.3 609.7 707.7 533.3 714.3 457.2C721 381 771 305 788.7 228.8C806.3 152.7 791.7 76.3 784.3 38.2L777 0L1200 0L1200 38.2C1200 76.3 1200 152.7 1200 228.8C1200 305 1200 381 1200 457.2C1200 533.3 1200 609.7 1200 685.8C1200 762 1200 838 1200 914.2C1200 990.3 1200 1066.7 1200 1142.8C1200 1219 1200 1295 1200 1371.2C1200 1447.3 1200 1523.7 1200 1561.8L1200 1600Z" fill="#693c37"></path><path d="M726 1600L733 1561.8C740 1523.7 754 1447.3 764.5 1371.2C775 1295 782 1219 794.8 1142.8C807.7 1066.7 826.3 990.3 821.3 914.2C816.3 838 787.7 762 793.2 685.8C798.7 609.7 838.3 533.3 845.5 457.2C852.7 381 827.3 305 828.3 228.8C829.3 152.7 856.7 76.3 870.3 38.2L884 0L1200 0L1200 38.2C1200 76.3 1200 152.7 1200 228.8C1200 305 1200 381 1200 457.2C1200 533.3 1200 609.7 1200 685.8C1200 762 1200 838 1200 914.2C1200 990.3 1200 1066.7 1200 1142.8C1200 1219 1200 1295 1200 1371.2C1200 1447.3 1200 1523.7 1200 1561.8L1200 1600Z" fill="#88473c"></path><path d="M885 1600L899.2 1561.8C913.3 1523.7 941.7 1447.3 959.2 1371.2C976.7 1295 983.3 1219 968.8 1142.8C954.3 1066.7 918.7 990.3 907.2 914.2C895.7 838 908.3 762 919.5 685.8C930.7 609.7 940.3 533.3 925.3 457.2C910.3 381 870.7 305 851.5 228.8C832.3 152.7 833.7 76.3 834.3 38.2L835 0L1200 0L1200 38.2C1200 76.3 1200 152.7 1200 228.8C1200 305 1200 381 1200 457.2C1200 533.3 1200 609.7 1200 685.8C1200 762 1200 838 1200 914.2C1200 990.3 1200 1066.7 1200 1142.8C1200 1219 1200 1295 1200 1371.2C1200 1447.3 1200 1523.7 1200 1561.8L1200 1600Z" fill="#a6533e"></path><path d="M987 1600L981.8 1561.8C976.7 1523.7 966.3 1447.3 958.8 1371.2C951.3 1295 946.7 1219 952 1142.8C957.3 1066.7 972.7 990.3 978.2 914.2C983.7 838 979.3 762 969.2 685.8C959 609.7 943 533.3 945.3 457.2C947.7 381 968.3 305 971.2 228.8C974 152.7 959 76.3 951.5 38.2L944 0L1200 0L1200 38.2C1200 76.3 1200 152.7 1200 228.8C1200 305 1200 381 1200 457.2C1200 533.3 1200 609.7 1200 685.8C1200 762 1200 838 1200 914.2C1200 990.3 1200 1066.7 1200 1142.8C1200 1219 1200 1295 1200 1371.2C1200 1447.3 1200 1523.7 1200 1561.8L1200 1600Z" fill="#c4613e"></path><path d="M1085 1600L1088 1561.8C1091 1523.7 1097 1447.3 1102.3 1371.2C1107.7 1295 1112.3 1219 1106.3 1142.8C1100.3 1066.7 1083.7 990.3 1082.8 914.2C1082 838 1097 762 1095 685.8C1093 609.7 1074 533.3 1078.2 457.2C1082.3 381 1109.7 305 1115.7 228.8C1121.7 152.7 1106.3 76.3 1098.7 38.2L1091 0L1200 0L1200 38.2C1200 76.3 1200 152.7 1200 228.8C1200 305 1200 381 1200 457.2C1200 533.3 1200 609.7 1200 685.8C1200 762 1200 838 1200 914.2C1200 990.3 1200 1066.7 1200 1142.8C1200 1219 1200 1295 1200 1371.2C1200 1447.3 1200 1523.7 1200 1561.8L1200 1600Z" fill="#e0703b"></path></svg>