<svg id="visual" viewBox="0 0 900 400" width="900" height="400" xmlns="http://www.w3.org/2000/svg" xmlns:xlink="http://www.w3.org/1999/xlink" version="1.1"><path d="M0 41L21.5 45.7C43 50.3 86 59.7 128.8 59C171.7 58.3 214.3 47.7 257.2 43C300 38.3 343 39.7 385.8 43C428.7 46.3 471.3 51.7 514.2 55C557 58.3 600 59.7 642.8 59C685.7 58.3 728.3 55.7 771.2 55.7C814 55.7 857 58.3 878.5 59.7L900 61L900 0L878.5 0C857 0 814 0 771.2 0C728.3 0 685.7 0 642.8 0C600 0 557 0 514.2 0C471.3 0 428.7 0 385.8 0C343 0 300 0 257.2 0C214.3 0 171.7 0 128.8 0C86 0 43 0 21.5 0L0 0Z" fill="#f7770f"></path><path d="M0 49L21.5 55.7C43 62.3 86 75.7 128.8 77.7C171.7 79.7 214.3 70.3 257.2 67C300 63.7 343 66.3 385.8 72.3C428.7 78.3 471.3 87.7 514.2 90.3C557 93 600 89 642.8 83C685.7 77 728.3 69 771.2 68.3C814 67.7 857 74.3 878.5 77.7L900 81L900 59L878.5 57.7C857 56.3 814 53.7 771.2 53.7C728.3 53.7 685.7 56.3 642.8 57C600 57.7 557 56.3 514.2 53C471.3 49.7 428.7 44.3 385.8 41C343 37.7 300 36.3 257.2 41C214.3 45.7 171.7 56.3 128.8 57C86 57.7 43 48.3 21.5 43.7L0 39Z" fill="#b55132"></path><path d="M0 93L21.5 99.7C43 106.3 86 119.7 128.8 117C171.7 114.3 214.3 95.7 257.2 92.3C300 89 343 101 385.8 111.7C428.7 122.3 471.3 131.7 514.2 131.7C557 131.7 600 122.3 642.8 116.3C685.7 110.3 728.3 107.7 771.2 107C814 106.3 857 107.7 878.5 108.3L900 109L900 79L878.5 75.7C857 72.3 814 65.7 771.2 66.3C728.3 67 685.7 75 642.8 81C600 87 557 91 514.2 88.3C471.3 85.7 428.7 76.3 385.8 70.3C343 64.3 300 61.7 257.2 65C214.3 68.3 171.7 77.7 128.8 75.7C86 73.7 43 60.3 21.5 53.7L0 47Z" fill="#6a3833"></path><path d="M0 217L21.5 219.7C43 222.3 86 227.7 128.8 232.3C171.7 237 214.3 241 257.2 237.7C300 234.3 343 223.7 385.8 229C428.7 234.3 471.3 255.7 514.2 256.3C557 257 600 237 642.8 224.3C685.7 211.7 728.3 206.3 771.2 204.3C814 202.3 857 203.7 878.5 204.3L900 205L900 107L878.5 106.3C857 105.7 814 104.3 771.2 105C728.3 105.7 685.7 108.3 642.8 114.3C600 120.3 557 129.7 514.2 129.7C471.3 129.7 428.7 120.3 385.8 109.7C343 99 300 87 257.2 90.3C214.3 93.7 171.7 112.3 128.8 115C86 117.7 43 104.3 21.5 97.7L0 91Z" fill="#2b2727"></path><path d="M0 241L21.5 249C43 257 86 273 128.8 277C171.7 281 214.3 273 257.2 263C300 253 343 241 385.8 245C428.7 249 471.3 269 514.2 275C557 281 600 273 642.8 266.3C685.7 259.7 728.3 254.3 771.2 248.3C814 242.3 857 235.7 878.5 232.3L900 229L900 203L878.5 202.3C857 201.7 814 200.3 771.2 202.3C728.3 204.3 685.7 209.7 642.8 222.3C600 235 557 255 514.2 254.3C471.3 253.7 428.7 232.3 385.8 227C343 221.7 300 232.3 257.2 235.7C214.3 239 171.7 235 128.8 230.3C86 225.7 43 220.3 21.5 217.7L0 215Z" fill="#2b2727"></path><path d="M0 265L21.5 277C43 289 86 313 128.8 323C171.7 333 214.3 329 257.2 317.7C300 306.3 343 287.7 385.8 285.7C428.7 283.7 471.3 298.3 514.2 309C557 319.7 600 326.3 642.8 321.7C685.7 317 728.3 301 771.2 291.7C814 282.3 857 279.7 878.5 278.3L900 277L900 227L878.5 230.3C857 233.7 814 240.3 771.2 246.3C728.3 252.3 685.7 257.7 642.8 264.3C600 271 557 279 514.2 273C471.3 267 428.7 247 385.8 243C343 239 300 251 257.2 261C214.3 271 171.7 279 128.8 275C86 271 43 255 21.5 247L0 239Z" fill="#6a3833"></path><path d="M0 373L21.5 375.7C43 378.3 86 383.7 128.8 382.3C171.7 381 214.3 373 257.2 367.7C300 362.3 343 359.7 385.8 361.7C428.7 363.7 471.3 370.3 514.2 374.3C557 378.3 600 379.7 642.8 375.7C685.7 371.7 728.3 362.3 771.2 361C814 359.7 857 366.3 878.5 369.7L900 373L900 275L878.5 276.3C857 277.7 814 280.3 771.2 289.7C728.3 299 685.7 315 642.8 319.7C600 324.3 557 317.7 514.2 307C471.3 296.3 428.7 281.7 385.8 283.7C343 285.7 300 304.3 257.2 315.7C214.3 327 171.7 331 128.8 321C86 311 43 287 21.5 275L0 263Z" fill="#b55132"></path><path d="M0 401L21.5 401C43 401 86 401 128.8 401C171.7 401 214.3 401 257.2 401C300 401 343 401 385.8 401C428.7 401 471.3 401 514.2 401C557 401 600 401 642.8 401C685.7 401 728.3 401 771.2 401C814 401 857 401 878.5 401L900 401L900 371L878.5 367.7C857 364.3 814 357.7 771.2 359C728.3 360.3 685.7 369.7 642.8 373.7C600 377.7 557 376.3 514.2 372.3C471.3 368.3 428.7 361.7 385.8 359.7C343 357.7 300 360.3 257.2 365.7C214.3 371 171.7 379 128.8 380.3C86 381.7 43 376.3 21.5 373.7L0 371Z" fill="#f7770f"></path></svg>